<svg width="29" height="29" viewBox="0 0 29 29" fill="none" xmlns="http://www.w3.org/2000/svg">
<g filter="url(#filter0_ii_223_746)">
<rect width="28.8" height="28.8" rx="14.4" fill="white" fill-opacity="0.024"/>
<path d="M14.5834 10.5267C16.6505 10.5267 18.3568 12.2329 18.3568 14.3001C18.3568 16.4001 16.6505 18.0735 14.5834 18.0735C12.4834 18.0735 10.8099 16.4001 10.8099 14.3001C10.8099 12.2329 12.4834 10.5267 14.5834 10.5267ZM14.5834 16.761C15.9287 16.761 17.0115 15.6782 17.0115 14.3001C17.0115 12.9548 15.9287 11.872 14.5834 11.872C13.2052 11.872 12.1224 12.9548 12.1224 14.3001C12.1224 15.6782 13.238 16.761 14.5834 16.761ZM19.374 10.3954C19.374 10.8876 18.9802 11.2813 18.488 11.2813C17.9959 11.2813 17.6021 10.8876 17.6021 10.3954C17.6021 9.90322 17.9959 9.50947 18.488 9.50947C18.9802 9.50947 19.374 9.90322 19.374 10.3954ZM21.8677 11.2813C21.9334 12.4954 21.9334 16.1376 21.8677 17.3517C21.8021 18.5329 21.5396 19.5501 20.6865 20.436C19.8334 21.2892 18.7834 21.5517 17.6021 21.6173C16.388 21.6829 12.7459 21.6829 11.5318 21.6173C10.3505 21.5517 9.33336 21.2892 8.44742 20.436C7.5943 19.5501 7.3318 18.5329 7.26617 17.3517C7.20055 16.1376 7.20055 12.4954 7.26617 11.2813C7.3318 10.1001 7.5943 9.0501 8.44742 8.19697C9.33336 7.34385 10.3505 7.08135 11.5318 7.01572C12.7459 6.9501 16.388 6.9501 17.6021 7.01572C18.7834 7.08135 19.8334 7.34385 20.6865 8.19697C21.5396 9.0501 21.8021 10.1001 21.8677 11.2813ZM20.2927 18.6313C20.6865 17.6798 20.588 15.3829 20.588 14.3001C20.588 13.2501 20.6865 10.9532 20.2927 9.96885C20.0302 9.34541 19.538 8.82041 18.9146 8.59072C17.9302 8.19697 15.6334 8.29541 14.5834 8.29541C13.5005 8.29541 11.2037 8.19697 10.2521 8.59072C9.59586 8.85322 9.10367 9.34541 8.84117 9.96885C8.44742 10.9532 8.54586 13.2501 8.54586 14.3001C8.54586 15.3829 8.44742 17.6798 8.84117 18.6313C9.10367 19.2876 9.59586 19.7798 10.2521 20.0423C11.2037 20.436 13.5005 20.3376 14.5834 20.3376C15.6334 20.3376 17.9302 20.436 18.9146 20.0423C19.538 19.7798 20.063 19.2876 20.2927 18.6313Z" fill="#10B358"/>
</g>
<defs>
<filter id="filter0_ii_223_746" x="0" y="0" width="28.7998" height="28.7998" filterUnits="userSpaceOnUse" color-interpolation-filters="sRGB">
<feFlood flood-opacity="0" result="BackgroundImageFix"/>
<feBlend mode="normal" in="SourceGraphic" in2="BackgroundImageFix" result="shape"/>
<feColorMatrix in="SourceAlpha" type="matrix" values="0 0 0 0 0 0 0 0 0 0 0 0 0 0 0 0 0 0 127 0" result="hardAlpha"/>
<feOffset/>
<feGaussianBlur stdDeviation="48"/>
<feComposite in2="hardAlpha" operator="arithmetic" k2="-1" k3="1"/>
<feColorMatrix type="matrix" values="0 0 0 0 1 0 0 0 0 1 0 0 0 0 1 0 0 0 0.05 0"/>
<feBlend mode="normal" in2="shape" result="effect1_innerShadow_223_746"/>
<feColorMatrix in="SourceAlpha" type="matrix" values="0 0 0 0 0 0 0 0 0 0 0 0 0 0 0 0 0 0 127 0" result="hardAlpha"/>
<feMorphology radius="1" operator="erode" in="SourceAlpha" result="effect2_innerShadow_223_746"/>
<feOffset/>
<feComposite in2="hardAlpha" operator="arithmetic" k2="-1" k3="1"/>
<feColorMatrix type="matrix" values="0 0 0 0 1 0 0 0 0 1 0 0 0 0 1 0 0 0 0.075 0"/>
<feBlend mode="normal" in2="effect1_innerShadow_223_746" result="effect2_innerShadow_223_746"/>
</filter>
</defs>
</svg>
