<svg width="30" height="29" viewBox="0 0 30 29" fill="none" xmlns="http://www.w3.org/2000/svg">
<g filter="url(#filter0_ii_223_742)">
<rect x="0.799805" width="28.8" height="28.8" rx="14.4" fill="white" fill-opacity="0.024"/>
<path d="M15.3841 6.1626C19.8795 6.1626 23.5216 9.80478 23.5216 14.3001C23.5216 18.7954 19.8795 22.4376 15.3841 22.4376C10.8888 22.4376 7.24664 18.7954 7.24664 14.3001C7.24664 9.80478 10.8888 6.1626 15.3841 6.1626ZM19.3545 11.7407C19.4857 11.2157 19.1576 10.986 18.7966 11.1173L10.9545 14.136C10.4295 14.3329 10.4295 14.661 10.856 14.7923L12.8576 15.4157L17.517 12.4626C17.7466 12.3313 17.9435 12.4298 17.7795 12.561L14.006 15.9735L13.8748 18.0407C14.0716 18.0407 14.1701 17.9423 14.2685 17.8438L15.2529 16.8923L17.2873 18.4017C17.681 18.5985 17.9435 18.5001 18.042 18.0407L19.3545 11.7407Z" fill="#10B358"/>
</g>
<defs>
<filter id="filter0_ii_223_742" x="0.799805" y="0" width="28.7998" height="28.7998" filterUnits="userSpaceOnUse" color-interpolation-filters="sRGB">
<feFlood flood-opacity="0" result="BackgroundImageFix"/>
<feBlend mode="normal" in="SourceGraphic" in2="BackgroundImageFix" result="shape"/>
<feColorMatrix in="SourceAlpha" type="matrix" values="0 0 0 0 0 0 0 0 0 0 0 0 0 0 0 0 0 0 127 0" result="hardAlpha"/>
<feOffset/>
<feGaussianBlur stdDeviation="48"/>
<feComposite in2="hardAlpha" operator="arithmetic" k2="-1" k3="1"/>
<feColorMatrix type="matrix" values="0 0 0 0 1 0 0 0 0 1 0 0 0 0 1 0 0 0 0.05 0"/>
<feBlend mode="normal" in2="shape" result="effect1_innerShadow_223_742"/>
<feColorMatrix in="SourceAlpha" type="matrix" values="0 0 0 0 0 0 0 0 0 0 0 0 0 0 0 0 0 0 127 0" result="hardAlpha"/>
<feMorphology radius="1" operator="erode" in="SourceAlpha" result="effect2_innerShadow_223_742"/>
<feOffset/>
<feComposite in2="hardAlpha" operator="arithmetic" k2="-1" k3="1"/>
<feColorMatrix type="matrix" values="0 0 0 0 1 0 0 0 0 1 0 0 0 0 1 0 0 0 0.075 0"/>
<feBlend mode="normal" in2="effect1_innerShadow_223_742" result="effect2_innerShadow_223_742"/>
</filter>
</defs>
</svg>
