<svg width="30" height="29" viewBox="0 0 30 29" fill="none" xmlns="http://www.w3.org/2000/svg">
<g filter="url(#filter0_ii_223_744)">
<rect x="0.400391" width="28.8" height="28.8" rx="14.4" fill="white" fill-opacity="0.024"/>
<path d="M20.1025 9.11572C21.4806 10.4938 22.3338 12.2985 22.3338 14.2673C22.3338 18.2704 18.9869 21.5517 14.9509 21.5517C13.7369 21.5517 12.5556 21.2235 11.4728 20.6657L7.63375 21.6501L8.65094 17.8767C8.0275 16.7938 7.66656 15.547 7.66656 14.2345C7.66656 10.2313 10.9478 6.9501 14.9509 6.9501C16.9197 6.9501 18.7572 7.7376 20.1025 9.11572ZM14.9509 20.3048C18.2978 20.3048 21.0869 17.5813 21.0869 14.2673C21.0869 12.6267 20.3978 11.1173 19.2494 9.96885C18.1009 8.82041 16.5916 8.19697 14.9838 8.19697C11.6369 8.19697 8.91344 10.9204 8.91344 14.2345C8.91344 15.3829 9.24156 16.4985 9.83219 17.4829L9.99625 17.7126L9.37281 19.9438L11.6697 19.3204L11.8666 19.4517C12.8181 20.0095 13.8681 20.3048 14.9509 20.3048ZM18.2978 15.7767C18.4619 15.8751 18.5931 15.9079 18.6259 16.0063C18.6916 16.072 18.6916 16.4329 18.5275 16.8595C18.3634 17.286 17.6416 17.6798 17.3134 17.7126C16.7228 17.811 16.2634 17.7782 15.115 17.2532C13.2775 16.4657 12.0963 14.6282 11.9978 14.5298C11.8994 14.3985 11.2759 13.5454 11.2759 12.6267C11.2759 11.7407 11.7353 11.3142 11.8994 11.1173C12.0634 10.9204 12.2603 10.8876 12.3916 10.8876C12.49 10.8876 12.6213 10.8876 12.7197 10.8876C12.8509 10.8876 12.9822 10.8548 13.1463 11.2157C13.2775 11.5767 13.6713 12.4626 13.7041 12.561C13.7369 12.6595 13.7697 12.7579 13.7041 12.8892C13.3759 13.5782 12.9822 13.5454 13.1791 13.8735C13.9009 15.0876 14.59 15.5142 15.6728 16.0392C15.8369 16.1376 15.9353 16.1048 16.0666 16.0063C16.165 15.8751 16.5259 15.4485 16.6244 15.2845C16.7556 15.0876 16.8869 15.1204 17.0509 15.186C17.215 15.2517 18.1009 15.6782 18.2978 15.7767Z" fill="#10B358"/>
</g>
<defs>
<filter id="filter0_ii_223_744" x="0.400391" y="0" width="28.7998" height="28.7998" filterUnits="userSpaceOnUse" color-interpolation-filters="sRGB">
<feFlood flood-opacity="0" result="BackgroundImageFix"/>
<feBlend mode="normal" in="SourceGraphic" in2="BackgroundImageFix" result="shape"/>
<feColorMatrix in="SourceAlpha" type="matrix" values="0 0 0 0 0 0 0 0 0 0 0 0 0 0 0 0 0 0 127 0" result="hardAlpha"/>
<feOffset/>
<feGaussianBlur stdDeviation="48"/>
<feComposite in2="hardAlpha" operator="arithmetic" k2="-1" k3="1"/>
<feColorMatrix type="matrix" values="0 0 0 0 1 0 0 0 0 1 0 0 0 0 1 0 0 0 0.05 0"/>
<feBlend mode="normal" in2="shape" result="effect1_innerShadow_223_744"/>
<feColorMatrix in="SourceAlpha" type="matrix" values="0 0 0 0 0 0 0 0 0 0 0 0 0 0 0 0 0 0 127 0" result="hardAlpha"/>
<feMorphology radius="1" operator="erode" in="SourceAlpha" result="effect2_innerShadow_223_744"/>
<feOffset/>
<feComposite in2="hardAlpha" operator="arithmetic" k2="-1" k3="1"/>
<feColorMatrix type="matrix" values="0 0 0 0 1 0 0 0 0 1 0 0 0 0 1 0 0 0 0.075 0"/>
<feBlend mode="normal" in2="effect1_innerShadow_223_744" result="effect2_innerShadow_223_744"/>
</filter>
</defs>
</svg>
